# xmcd
#
# Track frame offsets:
#       150
#       19122
#       42052
#       66157
#       83270
#       102064
#       119440
#       144934
#       155564
#       176696
#       197412
#       208816
#
# Disc length: 3017 seconds
#
# Revision: 0
# Processed by: cddbd v1.5PL3 Copyright (c) Steve Scherf et al.
# Submitted via: CD-DA_X-Tractor v0.21
#
DISCID=950bc70c
DTITLE=Nickel Creek - Nickel Creek
DYEAR=1900
DGENRE=
TTITLE0=Ode to a Butterfly
TTITLE1=The Lighthouse's Tale
TTITLE2=Out of the Woods
TTITLE3=House of Tom Bombadil
TTITLE4=Reasons Why
TTITLE5=When You Come Back Down
TTITLE6=Sweet Afton
TTITLE7=Cuckoo's Nest
TTITLE8=The Hand Song
TTITLE9=Robin and Marion
TTITLE10=The Fox
TTITLE11=Pastures New
EXTD=
EXTT0=
EXTT1=
EXTT2=
EXTT3=
EXTT4=
EXTT5=
EXTT6=
EXTT7=
EXTT8=
EXTT9=
EXTT10=
EXTT11=
PLAYORDER=
